<svg xmlns="http://www.w3.org/2000/svg" viewBox="0 0 64 64">
  <circle cx="32" cy="32" r="32" fill="#3d6b89"/>
  <circle cx="32" cy="32" r="27.5" fill="none" stroke="#fdf8f1" stroke-width="2.2"/>
  <g transform="translate(12.16 12.16) scale(0.62)" stroke="#fdf8f1" stroke-width="6.774193548387097" stroke-linecap="round" stroke-linejoin="round">
    <path d="M18 33 C18 24 24 19 31 19 C39 19 47 25 47 33 C47 40 41 45 33 45 C24 45 18 41 18 33 Z M25 20 L26 14 L29 18 L31 12 L33 17 L35 13 L37 19 Z M46 30 L55 32 L46 35 Z M22 47 L36 47 L39 58 L19 58 Z M35.6 31 A2.6 2.6 0 1 1 30.4 31 A2.6 2.6 0 1 1 35.6 31 Z" fill="#fdf8f1" fill-rule="evenodd" stroke="none"/>
  </g>
</svg>
